PathFileType	4	(X/Y/Z)	/home/mitkof6/dev/sinergia_osimrl/data/02761/02761_PRE/experimental_data/static.trc
DataRate	CameraRate	NumFrames	NumMarkers	Units	OrigDataRate	OrigDataStartFrame	OrigNumFrames
100.000000	100.000000	4	45	mm	100.000000	47	189
Frame#	Time	C7			CLAV			LANK			LASI			LBHD			LELB			LFHD			LFIN			LHEE			LKNE			LKNI			LMED			LMET			LMIF			LPSI			LSHO			LTHI			LTIB			LTOE			LTTU			LWRA			LWRB			RANK			RASI			RBAK			RBHD			RELB			RFHD			RFIN			RHEE			RKNE			RKNI			RMED			RMET			RMIF			RPSI			RSHO			RTHI			RTIB			RTOE			RTTU			RWRA			RWRB			STRN			T10			
		X1	Y1	Z1	X2	Y2	Z2	X3	Y3	Z3	X4	Y4	Z4	X5	Y5	Z5	X6	Y6	Z6	X7	Y7	Z7	X8	Y8	Z8	X9	Y9	Z9	X10	Y10	Z10	X11	Y11	Z11	X12	Y12	Z12	X13	Y13	Z13	X14	Y14	Z14	X15	Y15	Z15	X16	Y16	Z16	X17	Y17	Z17	X18	Y18	Z18	X19	Y19	Z19	X20	Y20	Z20	X21	Y21	Z21	X22	Y22	Z22	X23	Y23	Z23	X24	Y24	Z24	X25	Y25	Z25	X26	Y26	Z26	X27	Y27	Z27	X28	Y28	Z28	X29	Y29	Z29	X30	Y30	Z30	X31	Y31	Z31	X32	Y32	Z32	X33	Y33	Z33	X34	Y34	Z34	X35	Y35	Z35	X36	Y36	Z36	X37	Y37	Z37	X38	Y38	Z38	X39	Y39	Z39	X40	Y40	Z40	X41	Y41	Z41	X42	Y42	Z42	X43	Y43	Z43	X44	Y44	Z44	X45	Y45	Z45	

48	0.47	268.1650085449219	1211.495971679688	-284.2659912109372	381.0270080566406	1142.904052734375	-278.4620056152341	249.6269989013672	59.98799896240244	-431.8359985351562	351.1419982910156	818.3720092773439	-384.2059936523436	296.9240112304688	1339.788940429688	-349.346984863281	318.1050109863281	942.2039794921876	-540.1849975585935	422.2420043945312	1351.243041992188	-326.2810058593747	438.0910034179688	710.9329833984376	-667.6790161132811	194.9839935302734	34.92300033569345	-405.4570007324219	278.114990234375	440.6050109863282	-424.4010009765624	250.8849945068359	416.8850097656251	-305.2170104980468	245.3659973144531	65.27700042724618	-357.4519958496094	344.760986328125	27.89999961853037	-431.9880065917969	303.5369873046875	65.18099975585946	-383.760009765625	232.2599945068359	877.4569702148439	-310.0660095214842	308.3139953613281	1164.593017578125	-413.0039978027341	268.4849853515625	580.7000122070314	-470.959014892578	254.3190002441406	248.9019927978517	-487.0260009765624	361.7479858398438	41.99100112915048	-389.25	312.7909851074219	359.8210144042969	-364.6449890136718	433.7839965820312	750.3140258789064	-608.8969726562499	380.1520080566406	744.8029785156251	-648.1229858398436	249.3040008544922	54.50000000000002	-111.7399978637695	374.5759887695312	804.4039916992188	-184.3540039062498	249.2680053710938	1089.171020507812	-179.1080017089841	258.02099609375	1320.5	-248.4270019531247	309.3190002441406	962.1229858398438	-25.20000076293924	396.2030029296875	1338.93798828125	-203.8890075683591	359.7269897460938	735.9630126953125	109.5410003662111	215.6269989013672	26.69499969482425	-161.1690063476562	273.1229858398438	434.8410034179688	-130.3309936523437	282.3529968261719	405.6090087890626	-248.9530029296874	287.3429870605469	63.59500122070317	-176.8659973144531	336.2579956054688	29.10499954223634	-63.85900115966796	310.2669982910156	71.18699645996097	-128.4049987792968	241.3119964599609	875.2860107421875	-223.6280059814451	311.0799865722656	1198.462036132812	-149.1860046386716	296.7699890136719	571.8809814453125	-86.740997314453	235.8119964599609	230.270004272461	-70.89099884033197	366.635986328125	43.26200103759768	-92.8980026245117	316.5199890136719	354.0820007324219	-166.9880065917968	332.989990234375	767.719970703125	65.81500244140642	389.406005859375	778.1179809570312	69.07499694824236	419.6589965820312	1010.861999511719	-270.9599914550779	257.5660095214844	959.0089721679689	-267.013000488281	
49	0.48	268.2539978027344	1211.485961914062	-284.2780151367185	381.0669860839844	1142.866943359375	-278.4800109863279	249.6309967041016	59.98500061035165	-431.8240051269531	351.18798828125	818.3499755859376	-384.2690124511717	297.0469970703125	1339.795043945312	-349.3689880371091	318.0580139160156	942.1630249023439	-540.179016113281	422.3680114746094	1351.204956054688	-326.2860107421872	438.010009765625	710.9110107421876	-667.7399902343749	194.9850006103516	34.92900085449228	-405.4549865722656	278.1539916992188	440.5969848632814	-424.4349975585936	250.9550018310547	416.8890075683594	-305.2269897460936	245.3809967041016	65.2740020751954	-357.4500122070312	344.760986328125	27.89200019836435	-431.9830017089844	303.5379943847656	65.1689987182618	-383.7510070800781	232.3079986572266	877.4530029296876	-310.1340026855467	308.3450012207031	1164.58203125	-413.0270080566403	268.4679870605469	580.6820068359376	-471.0169982910155	254.3370056152344	248.8910064697267	-487.0509948730468	361.75	41.98300170898446	-389.2430114746094	312.8370056152344	359.8139953613282	-364.6749877929687	433.7430114746094	750.3020019531251	-608.9539794921874	380.06298828125	744.7620239257814	-648.1400146484374	249.3090057373047	54.49700164794924	-111.7389984130859	374.6170043945312	804.3740234375	-184.4149932861326	249.2630004882812	1089.166015625	-179.1580047607419	258.1799926757812	1320.506958007812	-248.440002441406	309.2919921875	962.0670166015625	-25.29100036621072	396.3240051269531	1338.89599609375	-203.8979949951169	359.6159973144531	735.8460083007812	109.384002685547	215.6239929199219	26.69000053405765	-161.1799926757812	273.1130065917969	434.8479919433594	-130.3880004882812	282.3779907226562	405.5889892578126	-248.990997314453	287.3429870605469	63.58100128173832	-176.8730010986328	336.260986328125	29.10300064086915	-63.85499954223632	310.27099609375	71.18299865722659	-128.406997680664	241.3650054931641	875.2659912109375	-223.6900024414061	311.1210021972656	1198.43994140625	-149.1909942626951	296.7590026855469	571.8829956054688	-86.79900360107409	235.7989959716797	230.2779998779297	-70.92600250244135	366.6369934082031	43.26300048828127	-92.88999938964842	316.5199890136719	354.0740051269532	-167.011001586914	332.9150085449219	767.6199951171875	65.66000366210955	389.2239990234375	777.8790283203125	69.05000305175798	419.6960144042969	1010.828002929688	-270.9800109863279	257.6069946289062	959.0020141601564	-267.0690002441404	
50	0.49	268.3299865722656	1211.484985351562	-284.2860107421872	381.0989990234375	1142.826049804688	-278.4899902343748	249.6309967041016	59.97999954223642	-431.81201171875	351.2460021972656	818.3300170898439	-384.3330078124998	297.1610107421875	1339.795043945312	-349.3850097656247	318.0169982910156	942.1309814453126	-540.1749877929685	422.4920043945312	1351.166015625	-326.2950134277341	437.9209899902344	710.8880004882814	-667.7990112304686	194.9850006103516	34.93299865722665	-405.4500122070312	278.2059936523438	440.5899963378907	-424.4660034179686	251.0279998779297	416.8999938964844	-305.2390136718749	245.3979949951172	65.2740020751954	-357.4410095214844	344.7640075683594	27.88400077819834	-431.97900390625	303.5320129394531	65.1429977416993	-383.7369995117188	232.3430023193359	877.4580078125001	-310.209991455078	308.3680114746094	1164.569946289062	-413.0469970703122	268.4750061035156	580.6619873046876	-471.0669860839843	254.3580017089844	248.8800048828126	-487.0629882812499	361.7489929199219	41.96900177001962	-389.2319946289062	312.8810119628906	359.8009948730469	-364.6990051269531	433.6940002441406	750.2880249023439	-609.0059814453124	379.9800109863281	744.7310180664064	-648.1569824218749	249.3220062255859	54.49800109863283	-111.7369995117187	374.64599609375	804.3350219726562	-184.4730072021483	249.2530059814453	1089.161987304688	-179.2079925537107	258.3349914550781	1320.510986328125	-248.4629974365232	309.2619934082031	962.0020141601562	-25.38500022888162	396.4460144042969	1338.862060546875	-203.9069976806638	359.5069885253906	735.7030029296875	109.1989974975588	215.6239929199219	26.68700027465824	-161.1920013427734	273.1080017089844	434.8580017089844	-130.4429931640624	282.4020080566406	405.5650024414063	-249.0339965820312	287.343994140625	63.56399917602543	-176.8769989013672	336.2619934082031	29.09900093078615	-63.85100173950195	310.2699890136719	71.17299652099612	-128.4089965820312	241.4259948730469	875.2449951171875	-223.7539978027342	311.1570129394531	1198.413940429688	-149.1940002441404	296.7550048828125	571.8880004882812	-86.85800170898425	235.7850036621094	230.2850036621094	-70.96399688720697	366.6380004882812	43.26100158691408	-92.88099670410155	316.5140075683594	354.0599975585938	-167.0330047607421	332.8359985351562	767.5250244140625	65.46199798584001	389.0920104980469	777.6929931640625	68.94799804687517	419.7330017089844	1010.794006347656	-270.9989929199216	257.6489868164062	958.9959716796876	-267.1260070800779	
51	0.5	268.3989868164062	1211.488037109375	-284.294006347656	381.1270141601562	1142.786010742188	-278.5010070800779	249.6289978027344	59.97600173950205	-431.8039855957031	351.3420104980469	818.3309936523439	-384.4140014648436	297.2680053710938	1339.79296875	-349.3949890136716	317.9819946289062	942.1099853515626	-540.1779785156248	422.6130065917969	1351.121948242188	-326.3099975585935	437.8299865722656	710.8679809570314	-667.8569946289061	194.9819946289062	34.93399810791025	-405.4429931640625	278.2640075683594	440.5809936523439	-424.4939880371093	251.10400390625	416.9169921875001	-305.2579956054686	245.4140014648438	65.27600097656259	-357.4299926757812	344.7659912109375	27.87800025939951	-431.9779968261719	303.5289916992188	65.12699890136727	-383.7319946289062	232.375	877.4660034179689	-310.2909851074217	308.3890075683594	1164.56005859375	-413.065002441406	268.5060119628906	580.6420288085939	-471.1130065917968	254.3829956054688	248.8670043945314	-487.0679931640624	361.7460021972656	41.95399856567391	-389.2260131835938	312.9299926757812	359.7879943847657	-364.7200012207031	433.6409912109375	750.2769775390626	-609.0570068359374	379.9070129394531	744.7109985351564	-648.1790161132811	249.3379974365234	54.50000000000002	-111.7399978637695	374.6700134277344	804.2960205078125	-184.5359954833983	249.2460021972656	1089.152954101562	-179.2590026855466	258.4649963378906	1320.515991210938	-248.4859924316403	309.2250061035156	961.927978515625	-25.48600006103494	396.5650024414062	1338.8330078125	-203.9170074462888	359.3970031738281	735.5349731445312	108.9889984130861	215.6280059814453	26.68700027465824	-161.2010040283203	273.1119995117188	434.8689880371094	-130.4949951171874	282.4230041503906	405.5390014648438	-249.0820007324218	287.343994140625	63.5480003356934	-176.8780059814453	336.260986328125	29.09199905395509	-63.8479995727539	310.2669982910156	71.161003112793	-128.4120025634765	241.5079956054688	875.219970703125	-223.8229980468748	311.1919860839844	1198.381958007812	-149.1970062255857	296.7529907226562	571.89501953125	-86.91999816894518	235.7680053710938	230.2890014648438	-71.00199890136713	366.6449890136719	43.26399993896487	-92.87999725341795	316.5079956054688	354.0450134277344	-167.0610046386718	332.7420043945312	767.4439697265625	65.21800231933611	389.0280151367188	777.5859985351562	68.75099945068376	419.7730102539062	1010.763000488281	-271.0220031738279	257.7000122070312	958.9910278320314	-267.1839904785154	
